<?xml version="1.0" standalone="no"?><!DOCTYPE svg PUBLIC "-//W3C//DTD SVG 1.1//EN" "http://www.w3.org/Graphics/SVG/1.1/DTD/svg11.dtd"><svg t="1688828698016" class="icon" viewBox="0 0 1024 1024" version="1.1" xmlns="http://www.w3.org/2000/svg" p-id="7854" xmlns:xlink="http://www.w3.org/1999/xlink" width="200" height="200"><path d="M855.8 163.3H585.2l-72 54.2-72-54.2h-271c-39.9 0-72.2 32.3-72.2 72.2v541.3c0 39.9 32.3 72.2 72.2 72.2h271l72 54.2 72-54.2h270.7c39.9 0 72.2-32.3 72.2-72.2V235.5c-0.1-39.9-32.4-72.2-72.3-72.2zM465.2 776.8H170.1V235.5h90.2v171.4c0 24.9 20.2 45.1 45.1 45.1 24.9 0 45.1-20.2 45.1-45.1V235.5H417l52.7 39.7 25.2 19v505l-10.4-7.8-19.3-14.6z m390.6 0H561l-19.3 14.5-10.7 8.1v-505l25.5-19.2 52.7-39.7h246.6v541.3z" p-id="7855"></path></svg>